<?xml version="1.0" standalone="no"?><svg xmlns="http://www.w3.org/2000/svg" viewBox="0 0 1440 320"><path fill="#151A1D" fill-opacity="1" d="M0,256L0,64L36.9,64L36.9,224L73.8,224L73.8,96L110.8,96L110.8,224L147.7,224L147.7,32L184.6,32L184.6,288L221.5,288L221.5,256L258.5,256L258.5,224L295.4,224L295.4,160L332.3,160L332.3,192L369.2,192L369.2,288L406.2,288L406.2,224L443.1,224L443.1,128L480,128L480,96L516.9,96L516.9,128L553.8,128L553.8,96L590.8,96L590.8,64L627.7,64L627.7,128L664.6,128L664.6,192L701.5,192L701.5,64L738.5,64L738.5,192L775.4,192L775.4,192L812.3,192L812.3,64L849.2,64L849.2,160L886.2,160L886.2,96L923.1,96L923.1,96L960,96L960,64L996.9,64L996.9,128L1033.8,128L1033.8,256L1070.8,256L1070.8,0L1107.7,0L1107.7,192L1144.6,192L1144.6,32L1181.5,32L1181.5,64L1218.5,64L1218.5,192L1255.4,192L1255.4,288L1292.3,288L1292.3,320L1329.2,320L1329.2,96L1366.2,96L1366.2,64L1403.1,64L1403.1,160L1440,160L1440,320L1403.1,320L1403.1,320L1366.2,320L1366.2,320L1329.2,320L1329.2,320L1292.3,320L1292.3,320L1255.4,320L1255.4,320L1218.5,320L1218.5,320L1181.5,320L1181.5,320L1144.6,320L1144.6,320L1107.7,320L1107.7,320L1070.8,320L1070.8,320L1033.8,320L1033.8,320L996.9,320L996.9,320L960,320L960,320L923.1,320L923.1,320L886.2,320L886.2,320L849.2,320L849.2,320L812.3,320L812.3,320L775.4,320L775.4,320L738.5,320L738.5,320L701.5,320L701.5,320L664.6,320L664.6,320L627.7,320L627.7,320L590.8,320L590.8,320L553.8,320L553.8,320L516.9,320L516.9,320L480,320L480,320L443.1,320L443.1,320L406.2,320L406.2,320L369.2,320L369.2,320L332.3,320L332.3,320L295.4,320L295.4,320L258.5,320L258.5,320L221.5,320L221.5,320L184.6,320L184.6,320L147.7,320L147.7,320L110.8,320L110.8,320L73.8,320L73.8,320L36.9,320L36.9,320L0,320L0,320Z"></path></svg>